<?xml version="1.0" encoding="utf-8"?>
<!-- Generator: Adobe Illustrator 25.0.0, SVG Export Plug-In . SVG Version: 6.00 Build 0)  -->
<svg version="1.1" id="Layer_1" xmlns="http://www.w3.org/2000/svg" xmlns:xlink="http://www.w3.org/1999/xlink" x="0px" y="0px"
	 viewBox="0 0 595.28 841.89" style="enable-background:new 0 0 595.28 841.89;" xml:space="preserve">
<style type="text/css">
	.st0{fill:#E5E5E5;}
	.st1{fill:#575759;}
	.st2{fill:#FE3D32;}
	.st3{fill:#A39E9E;}
	.st4{fill:#FEFEFE;}
	.st5{fill:#1F191A;}
	.st6{fill:#FE3E32;}
	.st7{fill:#323235;}
	.st8{fill:#FE3E31;}
	.st9{fill:#5F5F5F;}
	.st10{fill:#332E30;}
	.st11{fill:#1E1819;}
</style>
<g>
	<g>
		<path class="st0" d="M308.73,846.9c-120.35,0-240.7-0.02-361.04,0.1c-3.81,0-4.69-0.73-4.68-4.76
			c0.14-106.13,0.11-212.26,0.11-318.4c1.48-1.67,3.4-2.64,5.35-3.57c36.27-17.37,67.83-41.42,94.79-71.71
			c27.11-30.45,47.51-65.18,60.75-104.23c11.68-34.45,18.38-69.88,17.45-106.46c-1.49-58.34-16.36-112.67-47.26-162.04
			C57.73,49.53,37.97,26.27,14.76,6.06c-1.78-1.55-4.37-2.78-4.1-5.94c136.88,0,273.77,0,410.65,0c1.83,2.21,0.88,4.55,0.16,6.78
			c-7.85,24.19-12.7,49.06-14.15,74.45c-2.12,37.13,1.15,73.8,12.13,109.46c6.58,21.38,13.17,42.79,24.78,62.04
			c14.82,24.57,30.89,48.2,51.21,68.39c47.34,47.02,103.49,76.12,168.7,85.65c55.04,8.05,108.37,0.34,159.44-22.16
			c30.26-13.33,57.71-31.41,82.08-54.36c56.78-53.49,88.62-119.9,96.82-198.3c4.39-42-0.71-83.21-12.58-123.58
			c-0.8-2.71-2.52-5.48-0.33-8.36c139.03,0,278.06,0,417.08,0c1,1.91,0.51,3.97,0.51,5.95c0.03,278.29,0.03,556.59,0,834.88
			c0,1.98,0.49,4.04-0.51,5.95c-195.5,0-390.99,0-586.49,0c-2.39-1.18-3.6-3.45-4.99-5.59c-11.91-18.39-25.03-35.87-40.48-51.2
			c-44.75-44.42-97.52-73.25-159.1-83.91c-77.78-13.47-149.89,2.39-215.91,46.44c-33.96,22.65-61.88,51.91-84.12,86.79
			C313.73,842.31,312.14,845.5,308.73,846.9z"/>
		<path class="st1" d="M838.39,0.11c39.67,0,79.34,0,119.01,0c1.19,1.21,1.7,2.74,2.1,4.38c4.71,19.34-8.58,46.53-26.48,54.12
			c-11.17,1.2-22.39,1.94-33.59,2.67c-23.56,1.53-46.91,4.58-70.12,8.83c-31.86,5.84-63.23,13.78-94.11,23.8
			c-4.67,1.51-6.73,3.8-7.14,8.7c-1.39,16.55-6.02,32.1-14.83,46.1c-17.47,27.77-42.2,43.68-74.27,47.27
			c-25.12,2.82-47.75-4.12-68.14-19.02c-4-2.92-7.01-3.04-11.06-0.4c-30.4,19.76-59.36,41.51-86.67,65.58
			c-4.88,4.3-9.77,8.6-14.68,12.86c-4.94,4.28-7.18,4.1-10.69-1.63c-9.2-15.01-16.01-31.14-20.79-48.18c-1-3.55-0.13-6.57,2.51-8.98
			c24.2-21.99,46.4-46.3,72.46-66.14c8.05-6.13,16.32-11.89,24.88-17.22c2.93-1.82,3.93-4.01,3.7-7.68
			c-2.77-44.78,14.44-78.7,52.38-101.32c3.52-2.1,7.49-2.19,11.08-3.73c23.23,0,46.46,0,69.69,0c12.2,2.37,21.8,9.54,30.89,17.66
			c1.62,1.44,3.24,2.94,4.54,4.67c3.72,4.96,7.93,5.36,13.65,3.38c31.9-11.04,64.64-18.58,97.91-23.67
			c6.68-1.02,13.5-0.89,20.24-1.48C833.35,0.39,835.95,1.29,838.39,0.11z"/>
		<path class="st2" d="M646.47,846.9c-109.36,0-218.73,0-328.09,0c-0.89-2.71,0.91-4.56,2.13-6.48
			c22.06-34.56,50.13-62.92,83.83-85.36c39.81-26.49,83.33-42.39,130.52-47.42c39.19-4.18,77.65-0.24,115.31,11.73
			c2.11,0.67,4.69,1.01,5.2,4.02c-2.21,2.45-4.93,1.33-7.53,1.18c-13.54-0.76-27.1-1.65-40.24,3.04
			c-10.74,3.84-20.79,8.76-27.77,18.59c-9.98,14.08-10.77,29.05-4.18,44.73c8.03,19.13,22.55,31.7,39.87,41.34
			c8.03,4.47,16.61,7.55,25.4,10.06C643.27,842.99,646.59,842.87,646.47,846.9z"/>
		<path class="st3" d="M-56.89,513.92c0-37.49,0-74.98,0-112.46c1.27-2.65,2.97-4.92,5-7.05c31.14-32.64,52.19-71.26,64.28-115.16
			c0.58-2.1,0.76-4.36,2.32-6.07c2.07-1.36,4.15-0.55,6.2,0.03c27.56,7.8,54.75,16.75,81.34,27.56c7.78,3.17,8.2,3.97,6.14,12.32
			c-12.36,50.11-35.5,94.15-69.7,132.16c-25.04,27.82-54.06,49.95-87.05,66.7C-51,513.29-53.59,515.38-56.89,513.92z"/>
		<path class="st2" d="M429.89,0.11c50.04,0,100.07,0,150.11,0c-0.2,3.92-3.69,4.67-6.05,6.24c-21.14,14.08-35.2,33.63-42.4,58.3
			c-3.61,12.37-5.59,25.08-3.91,38.09c0.54,4.18-0.93,7.14-4.33,9.25c-17.34,10.78-33.23,23.57-48.36,37.35
			c-12.7,11.56-24.74,23.86-37.3,35.58c-1.06,0.99-2.02,2.08-3.05,3.1c-7.22,7.13-9.7,6.38-12.35-3.38
			c-7.79-28.67-11.76-57.87-11.22-87.62c0.56-30.87,5.75-60.99,15.14-90.33C426.94,4.23,427.94,1.89,429.89,0.11z"/>
		<path class="st4" d="M646.47,846.9c-0.4-2.69-2.72-1.92-4.24-2.33c-24.73-6.64-46.11-18.64-61.45-40.36
			c-5.21-7.37-8.83-15.54-10.37-24.55c-3.24-18.9,4.68-36.42,21.36-46.75c17.49-10.84,36.62-12.56,56.42-10.07
			c2.65,0.33,5.3,0.59,7.95,0.88c1.4-1.47,3.02-0.75,4.5-0.32c13.09,3.81,25.59,9.02,37.06,16.65c6.5,5.14,12.87,10.43,18.42,16.69
			c9.89,11.17,16.78,23.97,17.3,39.27c0.56,16.29-6.11,29.42-18.8,39.33c-8.16,6.37-17.56,9.46-27.4,11.55
			C673.63,846.9,660.05,846.9,646.47,846.9z"/>
		<path class="st5" d="M429.89,0.11c-4.53,15.82-9.3,31.56-12.2,47.84c-8.41,47.28-5.76,93.89,7.22,139.99
			c1.18,4.18,2.31,4.52,5.43,1.59c18.06-16.95,35.28-34.84,54.09-50.95c11.95-10.24,24.48-19.65,37.76-27.98
			c2.59-1.63,4.13-3.15,3.9-6.86c-2.64-43.42,14.01-76.94,49.47-100.6c1.49-0.99,2.95-2.02,4.42-3.04c4.65,0,9.29,0,13.94,0
			c-6.53,3.7-13.48,6.66-19.56,11.19c-31.75,23.71-45.87,55.59-41.79,95.81c0.27,2.68-0.23,4.4-2.66,5.88
			c-22.98,14.01-43.68,31.05-62.98,50.01c-11.74,11.53-23.83,22.68-35.88,33.87c-2.71,2.51-3.58,4.77-2.42,8.6
			c5.11,16.93,11.99,32.98,21.04,48.07c2.1,3.5,3.65,3.92,6.88,0.96c32.58-29.82,67.1-57.01,104.2-80.67
			c3.32-2.12,5.59-2.64,9.28,0.31c17.79,14.23,38.36,21.57,60.77,20.82c48.94-1.64,86.55-36.11,94.77-84.91
			c0.61-3.6,1.2-7.29,1.11-10.92c-0.09-3.82,1.84-5.01,4.87-5.99c35.08-11.4,70.74-20.42,107.04-26.55
			c20.38-3.45,40.89-5.99,61.57-7.13c10.85-0.6,21.66-1.94,32.55-2.06c13.27-3.36,26.81-3.03,40.32-3.05
			c4.81-0.01,9.63,0.11,14.44-0.05c5.07-0.16,5.55-0.79,4.89-5.91c-1.81-13.88-5.37-27.29-10.12-40.4
			c-0.91-2.52-2.45-4.99-1.25-7.89c2.86,0,5.72,0,8.58,0c2.71,10.42,5.65,20.79,8.11,31.28c38.56,164.57-61.88,332.61-222.1,371.67
			c-125.73,30.65-255.29-23-323.98-135.41c-49.91-81.68-59.04-169.26-31.89-261.22c0.61-2.08,1.07-4.22,1.59-6.33
			C424.17,0.11,427.03,0.11,429.89,0.11z"/>
		<path class="st6" d="M-56.89,177.63c0-22.79,0-45.57,0-68.36c3.28-0.88,5.34,1.59,7.63,3.13c16.73,11.22,34.82,17.98,55,17.03
			c17.03-0.8,31.46-7.17,39.78-23.54c6.97-13.72,5.97-28.05,1.52-42.32c-2.3-7.37-5.44-14.35-9.7-20.8
			c-1.43-2.17-3.64-4.29-2.2-7.44c2.61-0.76,3.95,1.19,5.34,2.79c41.31,47.57,66.2,102.85,73.98,166.22
			c0.74,6.02,1.08,12.06,1.73,18.09c0.96,8.9-1.64,10.8-9.71,7.6c-23.01-9.1-46.08-18.03-69.49-26.01
			c-28.87-9.84-58.15-18.01-88-24.06C-53.09,179.52-55.28,179.35-56.89,177.63z"/>
		<path class="st4" d="M34.48,34.77c5.55,8.99,11.04,17.96,14.26,28.23c13.05,41.68-12.99,73.67-55.25,67.93
			c-18.75-2.54-35.17-10.53-50.37-21.67c0-34.98,0.04-69.96-0.07-104.94c-0.01-3.21,0.42-4.38,3.99-4.32
			c16.2,0.25,32.41,0.11,48.62,0.11c15.17,6.46,26.21,18.32,37.21,30.21C33.96,31.52,34.77,32.97,34.48,34.77z"/>
		<path class="st1" d="M-56.89,251.5c0-22.79,0-45.57,0-68.36c2.34-1.83,4.83-0.75,7.22-0.26c40.57,8.23,80.16,20,118.84,34.97
			c7.83,3.03,16.04,5.13,23.33,9.58c2.54,2.43,2.49,5.53,2.07,8.7c-2.54,19.12-18.57,37.63-36.75,42.64
			c-2.66,0.73-5.28,0.74-7.95,0.79c-12.91-3.48-25.69-7.42-38.52-11.18c-19.89-5.84-40.1-10.06-60.43-13.81
			C-51.87,254.05-54.78,253.85-56.89,251.5z"/>
		<path class="st5" d="M92.1,228.39c-21.47-7.95-42.81-16.27-64.59-23.34c-27.73-9.01-55.95-15.92-84.4-21.91c0-1.84,0-3.68,0-5.51
			c10.75,0.6,21.06,3.69,31.45,6.18c45.84,11,89.97,27.44,133.73,45.01c6.61,2.65,6.68,2.65,6.21-4.71
			C109.96,153,84.54,90.95,38.06,38.06c-1.06-1.21-2.37-2.18-3.58-3.27C23.78,21.63,11.47,10.41-2.89,1.63
			c-0.58-0.35-0.98-1-1.46-1.51c5,0,10.01,0,15.01,0c30.79,26.08,56.28,56.71,75.42,92.82c21.8,41.13,33.41,85.1,36.45,131.84
			c7.34,112.67-52.38,239.47-174.46,297.54c-1.56,0.74-2.99,2.13-4.96,1.52c0-3.31,0-6.62,0-9.92
			c28.61-12.8,54.19-30.42,77.09-52.08c43.91-41.55,73.11-92.13,87.24-151.83c0.68-2.86,1.33-4.98-2.4-6.43
			c-29.54-11.55-59.39-22.11-90.06-30.07c-2.44,1.44-4.87,0.5-7.24-0.13c-19.43-5.21-39.03-9.62-58.83-13.08
			c-2.3-0.4-4.61-0.79-5.8-3.27c0-1.84,0-3.68,0-5.51c20.81,2.91,41.3,7.47,61.58,12.96c15.3,4.14,30.43,9,45.63,13.54
			c17.54,2.2,33.39,10.09,49.92,15.68c1.69,0.57,3.33,1.33,5,1.97c2.8,1.08,4.33,0.13,5.07-2.85c1.56-6.25,2.72-12.61,3.08-18.99
			c0.54-9.49,2.52-18.92,1.18-28.53c-0.57-4.08-2.32-6.5-6.01-8.19C102.93,234.51,96.5,233.43,92.1,228.39z"/>
		<path class="st4" d="M-56.89,257.01c21.66,4.36,43.38,8.42,64.71,14.36c2.4,0.67,4.78,1.42,7.17,2.13
			c-1.85,12.8-6.46,24.77-11.16,36.61c-13.44,33.85-32.75,63.75-58.21,89.36c-0.75,0.75-1.67,1.32-2.51,1.98
			C-56.89,353.31-56.89,305.16-56.89,257.01z"/>
		<path class="st5" d="M696.35,740.92c-12.57-7.82-26.1-13.29-40.23-17.21c-12.69-5.62-26.16-8.4-39.64-10.97
			c-115.65-22.11-235.07,31.68-298.1,134.16c-3.22,0-6.43,0-9.65,0c28.72-47.31,66.74-84.4,114.58-110.84
			c137.41-75.96,311.06-29.12,394.59,106.51c0.85,1.38,1.52,2.88,2.27,4.33c-3.22,0-6.43,0-9.65,0c-1.68-1.38-3.09-2.98-4.32-4.83
			c-11.16-16.67-23.57-32.26-37.6-46.5c-17.52-17.78-37.12-32.7-58.19-45.63C705.65,747.02,701.39,743.34,696.35,740.92z"/>
		<path class="st6" d="M696.35,740.92c12.95,5.41,24.5,13.35,35.89,21.49c30.35,21.68,55.64,48.52,76.12,80.15
			c0.87,1.34,1.44,2.89,2.16,4.34c-41.1,0-82.2,0-123.3,0c0.46-2.26,2.47-1.74,3.86-2.16c7.06-2.12,13.84-4.83,20-9.04
			c21.95-15,26.97-41.11,12.61-65.76c-5.96-10.22-13.91-18.54-23.19-25.59C699.07,743.27,697.73,742.07,696.35,740.92z"/>
		<path class="st7" d="M980.99,0.11c7.33,16.23,11.27,33.44,13.88,51.02c0.53,3.57-0.49,5.67-4.52,5.27
			c-2.3-0.23-4.63,0.04-6.95-0.06c-16.92-0.73-33.78,1.13-50.69,1.07c18.12-9.97,28.49-32.03,24.94-52.94
			c-0.24-1.43-0.18-2.91-0.25-4.36C965.27,0.11,973.13,0.11,980.99,0.11z"/>
		<path class="st8" d="M678.63,0.11c36.81,0,73.62,0,110.44,0c-0.47,4.07-3.89,3.79-6.45,4.3c-17.72,3.57-35.24,7.97-52.59,13.05
			c-6.01,1.76-12.05,3.45-17.94,5.6c-4.36,1.59-8.06,0.89-11.23-2.58c-5.67-6.2-12.23-11.24-19.22-15.76
			C680.05,3.71,678.07,2.72,678.63,0.11z"/>
		<path class="st5" d="M678.63,0.11c9.08,6.73,18.66,12.83,26.19,21.55c1.13,1.3,2.51,1.07,3.96,0.59
			c25.7-8.51,51.8-15.45,78.35-20.55c0.89-0.17,1.72-0.51,1.94-1.59c13.94,0,27.88,0,41.82,0c0.4,0.25,0.52,0.49,0.39,0.72
			c-0.13,0.23-0.27,0.35-0.4,0.35c-28.83,3.7-57.42,8.69-85.47,16.57c-12.38,3.48-24.64,7.4-36.92,11.23
			c-2.35,0.73-4.41,1.39-6.32-0.89c-10.58-12.62-23.89-21.27-38.54-27.99C668.63,0.11,673.63,0.11,678.63,0.11z"/>
		<path class="st9" d="M1406.65,846.9c0-282.26,0-564.52,0-846.78c0.33,0.24,1.12-0.56,1.08,0.55c-0.05,1.47-0.01,2.94-0.01,4.41
			c0,278.95,0,557.91-0.07,836.86C1407.66,843.55,1408.9,845.67,1406.65,846.9z"/>
		<path class="st10" d="M830.87,1.19c0.01-0.36,0.02-0.72,0.02-1.07c2.5,0,5,0,7.51,0C836.1,2.06,833.4,0.98,830.87,1.19z"/>
		<path class="st5" d="M697.91,93.53c-0.79,39.73-29.36,73.13-71.07,73.66c-41.35,0.53-72.63-32.81-72.55-74.24
			c0.08-39.3,29.17-73.78,71.98-73.64C667.1,19.45,697.37,52.09,697.91,93.53z"/>
		<path class="st4" d="M522.23,335.19c-22.69-17.45-41.11-39.04-57.34-62.73c-7.58-11.06-7.47-11.12,2.37-19.84
			c28.98-25.69,59.24-49.6,91.66-70.59c4.47-2.9,7.36-3.29,12.11,0.06c65.24,45.9,151.91,3.86,160.93-77.91
			c0.35-3.21,0.88-5.13,4.39-6.27c48.85-15.82,98.73-26.43,149.7-31.58c0.89-0.09,1.78-0.1,2.67-0.15
			c9.53-1.31,10.78-0.65,11.25,9.02c1.69,35.16-2.08,69.58-13.08,103.11c-10.88,33.14-27.08,63.15-49.21,89.61
			c-26.71,31.93-58.79,56.56-96.65,73.08c-26.54,11.58-54.1,19.17-82.81,21.13c-37.22,2.55-73.84-1.26-109.09-14.86
			C539.94,343.74,530.53,340.77,522.23,335.19z"/>
		<path class="st3" d="M522.23,335.19c11.38,4.25,22.59,9.07,34.16,12.65c88.64,27.47,170.28,12.83,243.56-45.36
			c47.09-37.4,76.95-87.05,91.28-146.43c6.63-27.45,8.6-55.34,6.69-83.57c-0.35-5.22-2.05-7.31-7.11-6.03
			c-0.64,0.16-1.39-0.17-2.1-0.27c6.2-2.31,12.73-1.18,19.07-1.68c26.9-2.13,53.86-2.7,80.85-2.36c5.11,0.06,7.05,1.74,7.46,7.15
			c8.31,108.27-27.84,197.4-108.94,266.91c-22.63,19.4-48.28,33.85-75.8,44.9c-40.76,16.37-82.91,23.27-126.46,20.05
			c-60.49-4.46-114.55-26.37-162.16-65.03C522.48,335.92,522.39,335.51,522.23,335.19z"/>
		<path class="st7" d="M92.1,228.39c6.89,2.9,13.75,5.87,20.68,8.65c1.93,0.78,2.66,1.93,3,3.98c0.85,5.07,1.46,10.19,0.93,15.28
			c-1.33,12.85-1.72,25.81-4.93,38.45c-1.06,4.17-2.38,4.62-5.74,3.22c-15.14-6.33-30.77-11.27-46.18-16.84
			c-3.16-1.14-6.68-1.09-9.54-3.14c14.49-0.42,24.5-8.9,33.1-19.69c4.95-6.21,7.75-13.54,9.35-21.38
			C93.36,234,93.73,231.12,92.1,228.39z"/>
		<path class="st4" d="M691.68,93.41c-0.1,37.44-29.71,67.76-65.94,67.51c-36.33-0.25-65.66-30.8-65.42-68.14
			c0.24-37.2,29.58-67.2,65.72-67.2C662.27,25.56,691.78,56.06,691.68,93.41z"/>
		<path class="st11" d="M676.53,93.29c-0.01,28.64-22.63,51.99-50.41,52.01c-27.82,0.02-50.56-23.26-50.63-51.82
			c-0.07-28.98,22.54-52.31,50.68-52.3C653.85,41.17,676.54,64.65,676.53,93.29z"/>
		<path class="st4" d="M579.48,92.88c0.19-26.5,21.27-47.78,47.12-47.55c25.41,0.22,46.11,22.01,45.87,48.27
			c-0.25,26.4-21.08,47.69-46.53,47.55C600.2,141.02,579.3,119.3,579.48,92.88z"/>
	</g>
</g>
</svg>
