<?xml version="1.0" encoding="utf-8"?>
<!-- Generator: Adobe Illustrator 25.0.0, SVG Export Plug-In . SVG Version: 6.00 Build 0)  -->
<svg version="1.1" id="Layer_1" xmlns="http://www.w3.org/2000/svg" xmlns:xlink="http://www.w3.org/1999/xlink" x="0px" y="0px"
	 viewBox="0 0 595.28 841.89" style="enable-background:new 0 0 595.28 841.89;" xml:space="preserve">
<style type="text/css">
	.st0{fill:#E5E5E5;}
	.st1{fill:#575759;}
	.st2{fill:#FE3E32;}
	.st3{fill:#FE3D32;}
	.st4{fill:#1F191A;}
	.st5{fill:#323235;}
	.st6{fill:#5F5F5F;}
	.st7{fill:#201A1B;}
	.st8{fill:#FDFDFD;}
	.st9{fill:#FB3D31;}
	.st10{fill:#FEFEFE;}
	.st11{fill:#A39E9E;}
	.st12{fill:#1E1819;}
</style>
<g>
	<g>
		<path class="st0" d="M1449.64,841.77c-416.12,0-832.23,0-1248.35,0c-1.2-2.04-0.69-4.27-0.66-6.43
			c0.78-48.45-7.15-95.19-27.09-139.51c-13.41-29.79-31.17-56.64-53.1-80.81c-19.94-21.97-42.58-40.43-67.76-55.81
			c-23.96-14.64-49.6-25.29-76.64-32.55c-2.58-0.69-5.43-0.95-6.85-3.8c0-172.68,0.02-345.37-0.1-518.05c0-3.85,0.66-4.81,4.67-4.81
			c130.79,0.14,261.59,0.11,392.39,0.11c1.35,2.56,0.3,5.01-0.41,7.43c-9.55,32.97-12.35,66.73-10.62,100.83
			c1.28,25.24,6.15,49.95,13.9,74.05c6.43,20,13.07,39.9,24.19,57.88c14.97,24.21,31.16,47.51,51.63,67.4
			c47.84,46.48,104.51,75.25,170.27,84.68c55.67,7.98,109.6,0.29,161.26-22.07c30.78-13.32,58.68-31.4,83.41-54.41
			c55.62-51.74,87.59-115.63,96.86-191.27c4.84-39.47,1.1-78.3-8.77-116.66c-0.65-2.54-2.28-5.14-0.39-7.85
			c167.39,0,334.77,0,502.16,0c1.01,1.89,0.51,3.94,0.51,5.91c0.03,276.61,0.03,553.22,0,829.82
			C1450.15,837.82,1450.65,839.87,1449.64,841.77z"/>
		<path class="st1" d="M715.38,0.11c65.8,0,131.6,0,197.39,0c1.07,1.1,1.45,2.45,1.5,3.97c0.49,15.34-13.2,36.37-27.45,42.15
			c-10.94,1.19-21.93,1.89-32.91,2.57c-22.57,1.39-44.98,4.11-67.22,8.01c-32.79,5.75-65.07,13.68-96.94,23.47
			c-7.4,2.27-9.91,5.96-10.6,13.18c-1.75,18.4-8.34,35.07-19.56,49.74c-17.97,23.48-41.57,36.73-70.87,39.64
			c-25.05,2.49-47.59-4.34-67.89-18.9c-4.27-3.06-7.41-3.07-11.65-0.35c-30.73,19.69-60.03,41.31-87.66,65.24
			c-4.94,4.28-9.86,8.58-14.85,12.79c-4.62,3.9-6.96,3.81-10.14-1.21c-9.59-15.18-16.66-31.53-21.55-48.85
			c-1.01-3.57,0.22-6.47,2.86-8.83c21.66-19.32,41.7-40.46,64.33-58.7c10.61-8.55,21.63-16.52,33.31-23.5
			c3.59-2.15,4.59-4.69,4.25-8.96c-2.6-32.74,7.9-60.67,30.95-83.8c3.34-3.35,6.95-6.36,11.63-7.66c38.32,0,76.64,0,114.97,0
			c5.86,2.11,9.86,6.67,13.85,11.09c3.33,3.69,6.67,4.58,11.51,2.94C679.91,8.31,697.3,2.88,715.38,0.11z"/>
		<path class="st2" d="M-30.81,750.81c0-73.06,0-146.12,0-219.18c2.13-1.89,4.47-0.93,6.67-0.33c35.82,9.9,68.65,26.08,98.58,48.25
			c2.36,1.74,6.08,2.96,5.45,7.23c-3.61,1.46-6.3-0.96-9.04-2.44c-14.39-7.76-29.67-11.05-45.96-10.42
			c-20.86,0.8-37.98,13.9-42.33,33.56c-2.84,12.85-1.25,25.66,4.22,37.49c17.07,36.94,45.53,59.21,85.61,65.34
			c11.58,1.77,23.08,0.02,33.76-5.47c16.54-8.49,23.91-25.38,22.45-43.35c-1.1-13.5-5.72-25.94-13.23-37.25
			c-1.43-2.15-3.72-4.27-2.05-7.39c2.59-0.47,3.97,1.36,5.4,2.98c41.76,47.29,66.96,102.23,74.8,165.22
			c0.77,6.16,1.21,12.35,1.79,18.52c0.78,8.2-1.83,10.07-9.42,7.14c-23.64-9.11-47.29-18.17-71.32-26.21
			c-42.66-14.29-86.16-24.84-130.8-30.46C-21.17,753.41-26.43,754.07-30.81,750.81z"/>
		<path class="st3" d="M374.82,0.11c45.91,0,91.83,0,137.74,0c0.13,3.51-2.88,4.84-4.8,6.81c-20.57,21.03-31.66,46.37-30.95,75.84
			c0.25,10.53-2.65,16.01-11.27,21.29c-18.73,11.49-35.34,25.91-51.29,41.12c-10.9,10.39-21.86,20.74-32.87,31.02
			c-5.62,5.25-8.51,4.36-10.57-2.93c-8.47-30.06-12.72-60.73-11.79-91.97c0.75-25.27,4.59-50.15,11.58-74.47
			C371.35,4.18,372.07,1.49,374.82,0.11z"/>
		<path class="st4" d="M374.82,0.11c-7.14,20.43-10.85,41.59-12.81,63.07c-3.42,37.5,0.42,74.32,10.77,110.48
			c1.78,6.23,1.76,6.25,6.48,1.92c19.94-18.25,38.76-37.76,59.85-54.73c10.47-8.42,21.33-16.28,32.8-23.24
			c2.58-1.57,3.71-3.22,3.45-6.54c-2.72-35.27,9.23-64.75,34.81-88.72c0.79-0.74,1.59-1.49,2.38-2.23c3.25,0,6.51,0,9.76,0
			c-20.66,15.82-34.16,36.32-39.43,62.09c-2.17,10.6-2.72,21.31-0.96,32.05c0.48,2.95-0.39,4.64-2.99,6.2
			c-22.9,13.76-43.57,30.44-62.84,48.99c-12.01,11.57-24.35,22.8-36.68,34.02c-2.91,2.65-3.78,5.03-2.54,9.01
			c5.17,16.62,12.04,32.4,21.06,47.26c2.28,3.76,3.89,4.05,7.31,0.98c33.08-29.74,68.15-56.84,105.84-80.39
			c3.09-1.93,5.19-2.07,8.48,0.5c14.86,11.65,31.74,18.45,50.61,20.23c30.02,2.83,56.05-6.48,77.72-27.13
			c17.08-16.27,27.02-36.7,29.57-60.52c0.31-2.89,0.78-5.78,0.94-8.68c0.18-3.29,2.78-3.5,4.92-4.17
			c37.05-11.7,74.64-21.01,113.03-27.07c29.96-4.73,60.09-7.06,90.33-8.48c10.69-2.83,21.64-2.9,32.57-3.05
			c7.19-0.1,14.39,0.05,21.59-0.04c6.52-0.08,6.83-0.55,5.99-6.89c-1.24-9.4-3.52-18.55-6.14-27.63c-0.69-2.41-1.64-4.92,0.25-7.28
			c2.17,0,4.34,0,6.51,0c34.81,119.96-1.83,244.75-95.49,325.24c-122.72,105.46-311.44,92.98-419.19-27.89
			c-23.09-25.9-43.15-54.05-56-86.68C350.6,144.28,344.87,76.35,364.03,6.9c0.63-2.28,1.41-4.52,2.12-6.78
			C369.04,0.11,371.93,0.11,374.82,0.11z"/>
		<path class="st1" d="M-30.81,825.33c0-22.65,0-45.3,0-67.95c2.4-2.29,5.34-1.9,8.2-1.57c31.41,3.63,62.33,9.8,92.95,17.77
			c32.19,8.38,63.49,19.45,94.58,31.17c2.2,0.83,4.41,1.63,6.28,3.12c1.46,1.25,2.42,2.93,2.27,4.78
			c-0.89,11.36-3.69,21.87-13.41,29.1c-31.09,0-62.18,0-93.27,0c-28.58-4.52-56.91-10.68-85.77-13.47
			C-23.02,827.91-27.32,828.17-30.81,825.33z"/>
		<path class="st4" d="M170.88,808.94c-24.57-9.11-49.05-18.48-74.17-25.96c-34.96-10.42-70.33-19-106.57-23.51
			c-6.97-0.87-13.86-2.45-20.95-2.08c0-2.19,0-4.38,0-6.58c37.17,3.34,73.61,10.61,109.52,20.75c37.1,10.47,73.2,23.84,109.03,38.01
			c6.08,2.41,6.21,2.39,5.83-3.79c-4.37-71.73-30.57-134.15-78.45-187.27c-0.71-0.79-1.67-1.34-2.51-2.01
			c-1.74,0.36-2.6-0.95-3.55-1.98c-8.1-8.76-16.61-17.04-26.36-23.94c-1.03-0.73-2.01-1.55-2.49-2.79
			c-0.06-0.15-0.02-0.35,0.01-0.53c0.06-0.31,0.3-0.28,0.68,0.08c-4.87-5.46-11.09-9.19-17.02-13.24
			c-29.05-19.85-60.48-34.37-94.7-42.49c0-2.92,0-5.84,0-8.77c35.54,8.99,68.99,23.02,99.01,44.34
			c83.44,59.27,128.05,140.52,133.69,243.52c0.57,10.38,1.17,20.73-0.6,31.04c-2.17,0-4.34,0-6.51,0
			c-1.64-3.86-0.61-7.91-0.67-11.85c-0.11-6.96-2.63-11.61-9.62-13.75C179.58,814.66,174.48,813.12,170.88,808.94z"/>
		<path class="st5" d="M940.97,0.11c2.87,12.15,6.67,24.08,8.33,36.54c0.87,6.52,0.54,7.48-5.93,7.28
			c-18.91-0.57-37.77,0.89-56.66,1.08c17.14-9.96,25.21-25.29,26.06-44.9C922.17,0.11,931.57,0.11,940.97,0.11z"/>
		<path class="st6" d="M1449.64,841.77c0-280.55,0-561.1,0-841.65c0.33,0.24,1.13-0.55,1.1,0.55c-0.05,1.46-0.01,2.92-0.01,4.38
			c0,277.26,0,554.53-0.07,831.79C1450.66,838.44,1451.91,840.55,1449.64,841.77z"/>
		<path class="st5" d="M170.88,808.94c6.94,2.87,13.87,5.77,20.82,8.59c1.2,0.49,2.59,0.85,2.78,2.26
			c0.99,7.31,2.72,14.62,0.3,21.98c-11.57,0-23.14,0-34.71,0c5.39-7.37,9.83-15.2,11.49-24.38
			C172.09,814.48,172.52,811.64,170.88,808.94z"/>
		<path class="st7" d="M-30.81,825.33c18.5,1.28,36.85,3.88,55.1,7.09c12.23,2.15,24.38,4.74,36.57,7.14
			c2.1,0.41,4.31,0.52,5.94,2.21c-10.12,0-20.25,0-30.37,0c-10.25-2.03-20.69-2.63-31-4.31c-9.97-1.62-20.02-2.93-30.11-3.69
			c-2.45-0.19-4.61-0.87-6.13-2.96C-30.81,828.98-30.81,827.16-30.81,825.33z"/>
		<path class="st4" d="M715.38,0.11c-7.48,3.82-15.89,4.41-23.75,6.97c-10.47,3.42-21.12,6.27-31.58,9.69
			c-3.24,1.06-5.31,0.52-7.64-1.9c-4.88-5.08-10.06-9.85-15.12-14.75c3.25,0,6.51,0,9.76,0c2.38,1.27,4.73,2.57,6.48,4.72
			c2.74,3.37,5.92,4.01,10.04,2.48c8.38-3.11,17.07-5.22,25.78-7.2C698.02,0.11,706.7,0.11,715.38,0.11z"/>
		<path class="st8" d="M-30.81,830.81c20.77,2.59,41.59,4.85,62.16,8.86c1.77,0.34,4.12-0.36,5.09,2.1c-21,0-42.01-0.13-63.01,0.12
			c-3.85,0.05-4.81-0.97-4.29-4.56C-30.56,835.2-30.81,832.99-30.81,830.81z"/>
		<path class="st9" d="M689.35,0.11c-2.17,2.97-5.72,2.59-8.68,3.56c-6.16,2.03-12.46,3.65-18.54,5.87
			c-3.4,1.24-5.73,0.77-8.02-2.03c-2.16-2.63-4.69-4.95-7.06-7.41C661.15,0.11,675.25,0.11,689.35,0.11z"/>
		<path class="st4" d="M503.86,80.51c0.26-38.85,29.18-73.36,72.7-73.37c41.2,0,72.84,32.46,72.47,74.14
			c-0.36,40.68-31.14,72.75-72.09,72.84C533.88,154.22,504.04,120.12,503.86,80.51z"/>
		<path class="st10" d="M80.91,587.35c11.87,8.28,22.5,17.94,31.72,29.16c5.57,8.94,11.14,17.85,14.39,28.06
			c13.12,41.19-12.87,73.46-55.3,67.36c-39.56-5.68-67.84-28-85.57-63.97c-4.72-9.59-7.08-19.98-6.6-30.74
			c1.14-25.64,18.09-43.01,43.56-45.05c18.83-1.51,36.11,3.54,52.49,12.51C77.33,585.63,79.13,586.46,80.91,587.35z"/>
		<path class="st10" d="M471.48,321.11c-22.96-17.34-41.59-38.81-58-62.35c-7.67-10.99-7.55-11.05,2.39-19.72
			c29.31-25.54,59.93-49.3,92.72-70.16c4.52-2.88,7.44-3.27,12.25,0.06c65.99,45.63,153.67,3.84,162.78-77.44
			c0.36-3.19,0.89-5.1,4.44-6.23c49.42-15.72,99.87-26.27,151.42-31.39c0.9-0.09,1.8-0.1,2.71-0.15c9.64-1.3,10.91-0.65,11.38,8.97
			c1.71,34.94-2.1,69.16-13.23,102.49c-11,32.94-27.4,62.77-49.78,89.06c-27.02,31.74-59.47,56.22-97.77,72.64
			c-26.85,11.51-54.73,19.05-83.76,21.01c-37.65,2.54-74.69-1.26-110.35-14.77C489.4,329.61,479.88,326.66,471.48,321.11z"/>
		<path class="st11" d="M471.48,321.11c11.51,4.22,22.85,9.01,34.56,12.58c89.66,27.3,172.24,12.75,246.37-45.09
			c47.64-37.17,77.84-86.52,92.34-145.54c6.7-27.28,8.7-55.01,6.77-83.07c-0.36-5.19-2.07-7.27-7.19-5.99
			c-0.65,0.16-1.41-0.17-2.12-0.27c6.27-2.3,12.87-1.17,19.29-1.67c27.21-2.11,54.49-2.68,81.79-2.34c5.17,0.06,7.13,1.73,7.55,7.11
			c8.41,107.61-28.17,196.2-110.2,265.3c-22.89,19.28-48.83,33.64-76.68,44.63c-41.23,16.27-83.87,23.13-127.92,19.93
			c-61.19-4.44-115.88-26.21-164.04-64.64C471.74,321.84,471.65,321.42,471.48,321.11z"/>
		<path class="st10" d="M510.01,80.74c-0.13-37.12,29.69-67.36,66.44-67.38c36.43-0.02,66.31,30.03,66.44,66.83
			c0.14,37.3-29.45,67.59-66.13,67.71C540.08,148.02,510.13,117.9,510.01,80.74z"/>
		<path class="st12" d="M525.37,79.96c0.4-28.57,23.39-51.33,51.6-51.08c28.27,0.25,51.03,23.95,50.61,52.69
			c-0.42,28.35-23.95,51.38-51.89,50.79C547.42,131.75,524.97,108.37,525.37,79.96z"/>
		<path class="st10" d="M529.4,80.26c0.19-26.34,21.53-47.48,47.68-47.26c25.7,0.22,46.64,21.88,46.39,47.99
			c-0.25,26.24-21.33,47.4-47.08,47.26C550.34,128.1,529.2,106.51,529.4,80.26z"/>
	</g>
</g>
</svg>
